<svg xmlns="http://www.w3.org/2000/svg" version="1.0" preserveAspectRatio="xMidYMid meet" viewBox="275.15 393.64 974.22 745.97">

<g transform="translate(0.000000,1536.000000) scale(0.100000,-0.100000)" fill="#000000" stroke="none">
<path d="M8324 11411 c-82 -37 -138 -154 -170 -358 -15 -96 -15 -136 -5 -353 6 -135 16 -366 22 -515 6 -148 17 -346 24 -440 l13 -170 -26 -40 c-63 -100 -252 -309 -444 -492 -109 -103 -411 -353 -426 -353 -12 0 -14 18 -42 370 -27 349 -27 348 8 362 199 80 300 182 360 363 40 119 59 300 43 405 -20 129 -81 198 -180 207 -90 9 -167 -50 -226 -172 -68 -138 -88 -276 -83 -575 l3 -205 -45 -7 c-84 -12 -276 -8 -361 8 -71 13 -181 48 -264 84 -120 51 -222 99 -330 154 -177 90 -246 110 -487 141 -458 58 -649 102 -843 195 -71 34 -116 64 -154 101 -65 64 -132 164 -157 237 -18 50 -39 67 -50 39 -8 -22 34 -121 79 -189 100 -149 221 -228 472 -306 151 -47 501 -110 715 -128 75 -6 168 -25 225 -46 17 -6 140 -64 275 -129 396 -191 588 -239 829 -210 51 7 95 10 97 8 11 -10 63 -725 55 -748 -3 -9 -58 -56 -121 -105 -536 -410 -813 -684 -1046 -1037 -58 -87 -201 -362 -229 -442 -10 -27 -22 -54 -25 -60 -18 -25 -63 -184 -89 -312 -71 -343 -61 -620 29 -807 132 -278 458 -330 767 -124 312 209 554 681 687 1340 69 338 104 857 86 1273 l-10 240 29 25 c15 14 70 59 121 100 275 221 489 426 663 634 l91 109 9 -34 c14 -50 1 -704 -23 -1144 -11 -209 -20 -492 -20 -630 -1 -274 -10 -497 -36 -825 -22 -292 -23 -335 -4 -335 9 0 17 15 22 44 8 45 32 346 48 586 4 72 13 150 19 175 5 25 17 101 26 170 18 130 57 297 120 510 21 69 40 133 42 142 8 26 106 51 171 45 109 -11 195 -121 233 -297 6 -25 14 -227 19 -450 6 -272 13 -435 23 -495 66 -402 279 -627 592 -626 100 0 160 11 243 41 186 69 404 239 511 397 189 283 338 617 356 801 13 124 -22 219 -64 178 -13 -14 -13 -17 2 -34 22 -25 23 -157 1 -242 -58 -229 -271 -626 -427 -796 -88 -97 -256 -208 -402 -266 -75 -30 -88 -32 -210 -32 -120 -1 -135 1 -194 27 -192 81 -305 248 -362 532 -6 28 -14 230 -19 450 -10 483 -21 566 -85 695 -27 53 -112 136 -149 146 -14 3 -26 9 -26 13 0 3 24 19 53 35 185 104 484 358 744 632 163 171 244 270 335 406 133 197 185 342 176 496 -10 179 -99 271 -263 272 -316 0 -661 -319 -899 -832 -73 -157 -85 -186 -133 -306 -123 -314 -376 -1109 -399 -1253 -8 -47 -24 -52 -24 -6 2 128 22 645 35 897 9 177 15 448 14 647 l-2 341 28 49 c15 26 34 55 41 63 22 26 140 269 177 365 64 167 111 342 143 540 27 163 25 442 -4 547 -38 137 -95 232 -165 272 -58 33 -105 38 -153 17z m153 -72 c72 -69 114 -163 138 -312 19 -117 19 -179 -1 -347 -41 -354 -140 -664 -305 -953 -28 -48 -54 -85 -58 -82 -15 9 -61 948 -61 1238 0 198 28 330 90 428 37 56 62 70 118 65 33 -3 53 -12 79 -37z m-943 -993 c49 -20 83 -63 97 -120 15 -64 6 -289 -16 -371 -44 -166 -143 -298 -267 -354 -113 -52 -104 -57 -111 65 -18 291 4 485 74 634 34 72 79 126 124 146 39 17 58 17 99 0z m2250 -346 c119 -73 137 -280 42 -484 -42 -93 -139 -242 -227 -351 -168 -209 -558 -588 -754 -735 -137 -102 -285 -182 -377 -205 -21 -5 -28 -3 -28 7 0 20 137 434 189 573 142 378 308 696 449 864 26 30 54 64 62 74 33 42 177 159 239 195 59 34 152 73 206 86 11 3 52 4 91 2 53 -2 81 -9 108 -26z m-2519 -1537 c11 -171 -1 -712 -19 -903 -48 -488 -156 -906 -326 -1255 -157 -325 -376 -538 -624 -610 -88 -26 -223 -17 -297 18 -176 84 -259 269 -260 575 0 280 64 564 194 849 160 355 376 642 726 966 99 92 577 477 593 477 3 0 9 -53 13 -117z"/>
<path d="M4349 5097 c-42 -28 -64 -82 -50 -120 6 -14 33 -43 61 -63 55 -39 68 -69 51 -112 -24 -59 -98 -76 -144 -34 -16 14 -19 14 -27 2 -14 -21 -7 -33 24 -43 74 -25 179 29 192 99 10 56 -2 83 -56 116 -52 32 -73 69 -59 104 17 47 92 71 119 39 16 -19 26 -19 34 2 9 23 -11 33 -65 33 -31 0 -57 -7 -80 -23z"/>
<path d="M5007 4981 c-15 -75 -27 -147 -27 -161 0 -82 118 -126 216 -81 72 33 85 58 132 253 25 100 27 118 14 123 -8 3 -16 4 -17 3 -1 -2 -14 -61 -29 -133 -30 -147 -49 -192 -96 -219 -64 -38 -162 -15 -177 42 -5 21 25 184 53 287 4 16 0 20 -18 21 -23 2 -25 -5 -51 -135z"/>
<path d="M5885 5098 c-3 -13 -21 -90 -40 -173 -19 -82 -37 -160 -41 -172 -5 -18 -2 -23 13 -23 16 0 22 19 47 150 15 83 31 150 34 150 4 -1 50 -64 102 -141 52 -77 100 -147 107 -157 10 -15 12 -15 17 8 72 334 77 363 64 371 -15 10 -16 7 -48 -166 -12 -66 -24 -124 -27 -128 -6 -10 -48 45 -146 191 -65 97 -77 110 -82 90z"/>
<path d="M7334 5113 c-17 -3 -23 -19 -38 -100 -10 -53 -28 -138 -41 -189 l-22 -94 23 0 c25 0 27 5 45 100 18 99 21 100 66 39 22 -30 51 -73 64 -96 19 -34 30 -43 52 -43 15 0 27 2 27 5 0 2 -28 44 -63 92 -35 48 -66 93 -70 100 -5 7 13 31 45 60 143 131 142 130 121 128 -12 0 -62 -40 -113 -88 -51 -48 -96 -87 -100 -87 -5 0 -2 28 6 63 22 89 27 117 23 116 -2 -1 -13 -4 -25 -6z"/>
<path d="M8065 5097 c-16 -73 -75 -355 -75 -361 0 -3 10 -6 23 -6 21 0 24 7 36 75 7 42 23 121 37 176 29 121 29 125 4 132 -15 4 -21 -1 -25 -16z"/>
<path d="M8670 5102 c-45 -22 -75 -80 -63 -120 5 -15 33 -45 61 -66 57 -43 70 -72 53 -114 -24 -58 -105 -77 -147 -35 -13 14 -17 14 -25 2 -14 -22 -5 -33 33 -43 104 -26 208 62 184 157 -3 13 -25 37 -48 52 -57 38 -68 53 -68 91 0 58 70 94 116 59 25 -19 31 -19 38 2 4 9 1 20 -6 25 -22 14 -92 9 -128 -10z"/>
<path d="M9365 5106 c-45 -20 -67 -50 -69 -95 -1 -44 17 -70 76 -107 43 -28 56 -62 38 -105 -24 -57 -97 -73 -143 -31 -16 14 -19 14 -27 2 -14 -22 -7 -33 26 -42 69 -20 148 12 179 72 31 59 17 106 -42 141 -51 30 -63 47 -63 85 0 57 86 99 120 59 7 -8 16 -15 20 -15 15 0 21 33 8 42 -20 12 -89 9 -123 -6z"/>
<path d="M10034 5105 c-2 -5 -19 -85 -39 -178 -20 -92 -38 -174 -41 -182 -5 -13 9 -15 95 -15 81 0 101 3 101 14 0 12 -13 14 -70 9 -81 -7 -80 -9 -57 102 l13 60 67 3 c51 2 67 6 67 18 0 12 -9 13 -50 8 -77 -10 -80 -8 -62 75 l15 71 69 0 c48 0 68 4 68 13 0 15 -171 17 -176 2z"/>
<path d="M10735 5105 c-7 -24 -75 -361 -75 -367 0 -13 179 -9 224 4 60 18 139 100 154 160 16 62 15 80 -4 128 -26 65 -65 82 -191 84 -65 1 -106 -2 -108 -9z m218 -36 c79 -61 50 -214 -55 -292 -31 -23 -188 -39 -188 -18 0 13 47 241 61 294 l10 37 73 0 c59 0 78 -4 99 -21z"/>
<path d="M3455 4420 c-2 -3 -13 -54 -25 -115 -20 -100 -43 -202 -56 -247 -5 -16 4 -18 95 -18 79 0 101 3 101 14 0 10 -15 12 -70 8 -81 -5 -80 -8 -57 103 l13 60 67 3 c51 2 67 6 67 18 0 12 -9 13 -50 8 -78 -10 -80 -8 -61 75 l16 71 67 0 c48 0 68 4 68 13 0 9 -24 12 -86 12 -47 0 -87 -2 -89 -5z"/>
<path d="M4103 4391 c3 -20 14 -107 23 -193 22 -193 29 -199 93 -70 62 127 112 214 118 208 3 -3 14 -69 23 -146 10 -78 21 -144 24 -147 15 -16 40 18 101 138 37 72 80 154 96 181 34 58 34 58 11 58 -13 0 -29 -24 -55 -82 -21 -46 -56 -117 -79 -158 l-42 -75 -7 35 c-5 19 -13 89 -20 155 -7 66 -15 123 -18 127 -13 15 -29 -11 -107 -159 -43 -84 -82 -149 -86 -145 -4 4 -13 73 -19 154 -13 142 -14 147 -37 151 -23 4 -24 2 -19 -32z"/>
<path d="M5100 4412 c0 -17 -68 -336 -76 -357 -5 -13 9 -15 95 -15 81 0 101 3 101 14 0 12 -13 14 -71 9 l-72 -6 7 49 c4 27 12 66 17 87 l10 37 64 0 c50 0 65 3 65 15 0 11 -10 13 -49 8 -79 -9 -81 -7 -62 76 l16 71 67 0 c48 0 68 4 68 13 0 9 -25 12 -90 12 -69 0 -90 -3 -90 -13z"/>
<path d="M5813 4422 c-18 -3 -24 -14 -33 -60 -23 -113 -61 -287 -66 -304 -5 -16 4 -18 95 -18 83 0 101 3 101 15 0 12 -13 15 -72 13 l-73 -3 3 28 c2 15 19 96 37 179 19 84 33 152 32 153 -1 0 -12 -1 -24 -3z"/>
<path d="M6464 4415 c-1 -5 -17 -82 -34 -170 -18 -88 -36 -170 -41 -182 -7 -20 -5 -23 16 -23 14 0 25 1 25 3 16 101 38 182 51 185 10 2 37 -29 79 -93 55 -84 66 -95 92 -95 l29 0 -39 53 c-21 28 -51 71 -65 94 l-26 42 34 11 c53 17 95 65 95 106 0 45 -28 71 -82 78 -62 7 -130 3 -134 -9z m159 -38 c24 -27 15 -64 -24 -99 -24 -23 -39 -28 -80 -28 -37 0 -50 4 -46 13 2 6 10 38 18 70 9 43 18 61 33 67 30 13 78 2 99 -23z"/>
<path d="M7144 4410 c2 -8 23 -60 46 -114 45 -105 45 -116 13 -234 -5 -21 -3 -23 18 -20 21 3 25 12 39 83 19 93 13 82 102 198 37 49 68 91 68 92 0 2 -6 5 -14 8 -9 4 -31 -21 -64 -71 -28 -42 -60 -88 -71 -101 l-19 -25 -15 36 c-8 19 -25 64 -36 99 -19 56 -25 64 -47 64 -18 0 -24 -4 -20 -15z"/>
<path d="M8495 4416 c-2 -6 -18 -81 -35 -166 -17 -85 -35 -167 -40 -182 l-9 -28 77 0 c125 1 192 43 192 122 0 42 -30 78 -64 78 -16 1 -12 6 16 20 71 38 93 113 42 146 -30 20 -174 28 -179 10z m153 -32 c18 -26 8 -74 -22 -101 -25 -21 -102 -41 -113 -29 -6 6 15 133 25 150 9 15 95 -1 110 -20z m-47 -160 c9 -3 22 -17 29 -33 26 -64 -35 -131 -120 -131 -50 0 -50 1 -15 158 5 22 9 23 48 17 23 -4 49 -9 58 -11z"/>
<path d="M9190 4421 c0 -3 21 -55 46 -115 49 -116 50 -124 18 -243 -5 -20 -2 -23 20 -23 18 0 26 5 26 17 0 9 5 45 11 80 10 57 20 77 90 171 56 76 75 108 66 114 -7 5 -16 2 -22 -8 -46 -74 -130 -183 -135 -177 -4 5 -21 47 -39 95 -27 71 -37 87 -57 91 -13 2 -24 2 -24 -2z"/>
<path d="M10555 4263 c-60 -92 -118 -179 -128 -195 -19 -28 -19 -28 2 -28 12 0 25 8 28 18 4 9 22 43 40 75 l34 57 78 0 78 0 12 -75 c12 -71 14 -75 38 -75 21 0 24 3 19 23 -6 23 -76 355 -76 363 0 20 -30 -20 -125 -163z m111 21 c8 -37 13 -69 10 -71 -2 -2 -31 -3 -65 -1 l-61 3 47 72 c26 40 49 70 51 68 2 -2 11 -34 18 -71z"/>
<path d="M11326 4419 c-2 -8 -20 -89 -40 -181 -20 -92 -39 -175 -42 -183 -4 -10 0 -15 13 -15 16 0 22 20 47 150 16 83 32 150 35 150 3 0 53 -70 111 -155 99 -146 119 -165 120 -112 0 10 16 90 36 179 29 130 33 163 22 169 -15 9 -15 9 -49 -171 -12 -63 -25 -119 -29 -123 -4 -4 -55 63 -113 149 -59 87 -108 151 -111 143z"/>
<path d="M12186 4419 c-2 -8 -12 -52 -21 -99 -15 -78 -48 -220 -61 -262 -4 -13 0 -18 13 -18 16 0 22 22 47 150 16 83 32 150 35 150 3 -1 53 -70 111 -155 98 -144 106 -152 112 -127 4 15 24 101 44 191 29 133 33 165 22 172 -15 9 -15 10 -49 -171 -12 -63 -24 -118 -28 -123 -7 -7 -75 86 -177 241 -26 40 -45 60 -48 51z"/>
<path d="M2866 4333 c-38 -198 -68 -303 -93 -334 -14 -16 -24 -32 -21 -34 8 -9 70 39 84 67 11 20 94 361 94 386 0 1 -11 2 -23 2 -22 0 -25 -7 -41 -87z"/>
</g>
</svg>