<svg width="378.4014526367187px" height="149.6px" xmlns="http://www.w3.org/2000/svg" viewBox="60.79927368164064 0.20000000000000284 378.4014526367187 149.6" style="background: rgba(0, 0, 0, 0);" preserveAspectRatio="xMidYMid"><defs><filter id="editing-hole" x="-100%" y="-100%" width="300%" height="300%"><feFlood flood-color="#000000" result="black"></feFlood><feMorphology operator="dilate" radius="2" in="SourceGraphic" result="erode"></feMorphology><feGaussianBlur in="erode" stdDeviation="4" result="blur"></feGaussianBlur><feOffset in="blur" dx="2" dy="2" result="offset"></feOffset><feComposite operator="atop" in="offset" in2="black" result="merge"></feComposite><feComposite operator="in" in="merge" in2="SourceGraphic" result="inner-shadow"></feComposite></filter></defs><g filter="url(#editing-hole)"><g transform="translate(122.34923493862152, 103.46000099182129)"><path d="M48.11-2.05L48.11-2.05L48.11-2.05Q48.11 3.04 53.20 3.04L53.20 3.04L53.20 3.04Q60.04 3.04 69.69-6.84L69.69-6.84L69.69-6.84Q78.43-15.66 83.03-24.81L83.03-24.81L83.03-24.81Q87.63-33.97 87.63-38.76L87.63-38.76L87.63-38.76Q87.63-39.52 87.48-40.28L87.48-40.28L87.48-40.28Q85.80-40.28 84.06-42.03L84.06-42.03L84.06-41.95L84.06-41.95Q82.92-42.86 82.92-43.81L82.92-43.81L82.92-43.81Q82.92-44.76 83.68-45.37L83.68-45.37L83.68-45.37Q84.44-45.98 85.65-45.98L85.65-45.98L85.65-45.98Q86.87-45.98 87.36-45.03L87.36-45.03L87.36-45.03Q87.86-44.08 88.62-43.32L88.62-43.32L88.62-43.32Q89.38-42.56 89.30-42.26L89.30-42.26L89.30-42.26Q89.76-41.57 90.71-41.57L90.71-41.57L90.71-41.57Q91.66-41.57 92.87-42.48L92.87-42.48L92.87-42.48Q94.09-43.40 94.81-43.40L94.81-43.40L94.81-43.40Q95.53-43.40 95.53-42.94L95.53-42.94L95.53-42.94Q95.53-42.10 94.09-41.34L94.09-41.34L94.09-41.34Q93.33-40.74 92.26-40.66L92.26-40.66L89.83-40.66L89.83-40.66Q90.74-37.54 90.74-36.18L90.74-36.18L90.74-36.18Q90.74-30.10 84.93-20.37L84.93-20.37L84.93-20.37Q79.12-10.64 70.00-3.12L70.00-3.12L70.00-3.12Q60.80 4.64 53.31 4.64L53.31 4.64L53.31 4.64Q45.83 4.64 45.83-2.66L45.83-2.66L45.83-2.66Q45.83-8.44 50.69-19.15L50.69-19.15L56.16-31.08L48.72-25.31L48.72-25.31Q45.22-22.42 41.61-18.96L41.61-18.96L41.61-18.96Q38-15.50 29.03-4.71L29.03-4.71L20.22 6.08L20.22 6.08Q18.09 8.51 16.42 8.51L16.42 8.51L16.42 8.51Q15.12 8.51 15.12 6.84L15.12 6.84L15.12 6.84Q15.12 5.17 16.49 2.51L16.49 2.51L31.16-18.62L31.16-18.62Q44.46-38.15 44.46-43.40L44.46-43.40L44.46-43.40Q44.46-46.28 39.14-46.28L39.14-46.28L39.14-46.28Q32.68-46.28 21.13-38.38L21.13-38.38L21.13-38.38Q14.90-34.12 10.18-27.70L10.18-27.70L10.18-27.70Q5.47-21.28 5.47-17.06L5.47-17.06L5.47-17.06Q5.47-12.84 11.10-12.84L11.10-12.84L11.10-12.84Q16.34-12.84 21.89-17.71L21.89-17.71L21.89-17.71Q23.86-19.38 24.17-19.38L24.17-19.38L24.17-19.38Q24.47-19.38 24.40-18.85L24.40-18.85L24.40-18.85Q23.56-15.96 18.20-13.34L18.20-13.34L18.20-13.34Q12.84-10.72 8.74-10.72L8.74-10.72L8.74-10.72Q7.68-10.72 7.30-10.79L7.30-10.79L7.22-10.79L7.22-10.79Q1.14-12.08 1.14-16.80L1.14-16.80L1.14-16.80Q1.14-21.51 6.38-28.12L6.38-28.12L6.38-28.12Q15.66-39.82 30.25-45.52L30.25-45.52L30.25-45.52Q37.77-48.41 42.64-48.41L42.64-48.41L42.64-48.41Q48.64-48.41 48.64-44.46L48.64-44.46L48.64-44.46Q48.64-36.25 27.97-8.82L27.97-8.82L27.97-8.82Q21.05 0.38 20.98 0.38L20.98 0.38L20.98 0.38Q21.20 0.38 28.92-8.21L28.92-8.21L28.92-8.21Q36.63-16.80 43.55-22.88L43.55-22.88L43.55-22.88Q46.21-25.23 52.74-31.54L52.74-31.54L52.74-31.54Q56.16-34.73 60.12-37.32L60.12-37.32L60.12-37.32Q61.10-37.92 62.97-37.92L62.97-37.92L62.97-37.92Q64.83-37.92 65.51-36.86L65.51-36.86L65.51-36.86Q58.52-28.20 53.31-17.44L53.31-17.44L53.31-17.44Q48.11-6.69 48.11-2.05ZM92.34-40.66L92.26-40.66L92.34-40.66ZM90.14 0.99L90.14 0.99L90.14 0.99Q89.30 0.99 88.62 0.76L88.62 0.76L88.62 0.76Q83.75-0.61 83.75-4.71L83.75-4.71L83.75-4.71Q83.75-10.03 90.44-17.02L90.44-17.02L90.44-17.02Q97.13-24.02 102.45-24.02L102.45-24.02L102.45-24.02Q104.20-24.02 105.30-23.07L105.30-23.07L105.30-23.07Q106.40-22.12 106.40-20.75L106.40-20.75L106.40-20.75Q106.40-16.49 99.98-12.62L99.98-12.62L99.98-12.62Q93.56-8.74 89.53-8.74L89.53-8.74L89.53-8.74Q88.92-8.74 88.46-8.89L88.46-8.89L88.46-8.89Q87.32-6.84 87.32-4.56L87.32-4.56L87.32-4.56Q87.32-0.61 91.09-0.61L91.09-0.61L91.09-0.61Q94.85-0.61 100.85-5.70L100.85-5.70L100.85-5.70Q105.49-9.42 108.76-13.60L108.76-13.60L108.76-13.60Q109.44-14.52 109.93-14.52L109.93-14.52L109.93-14.52Q110.43-14.52 110.43-14.06L110.43-14.06L110.43-14.06Q110.43-13.60 109.82-12.77L109.82-12.77L109.82-12.77Q105.72-7.37 99.94-3.19L99.94-3.19L99.94-3.19Q94.16 0.99 90.14 0.99ZM104.50-20.90L104.50-20.90L104.50-20.90Q104.50-21.81 102.56-21.81L102.56-21.81L102.56-21.81Q100.62-21.81 97.05-18.85L97.05-18.85L97.05-18.85Q92.26-14.90 89.60-10.56L89.60-10.56L89.60-10.56Q90.06-10.41 90.59-10.41L90.59-10.41L90.59-10.41Q93.48-10.41 98.31-13.49L98.31-13.49L98.31-13.49Q103.13-16.57 104.35-20.22L104.35-20.22L104.35-20.22Q104.50-20.60 104.50-20.90ZM108.76-3.80L108.76-3.80L108.76-3.80Q108.76-1.52 111.26-1.52L111.26-1.52L111.26-1.52Q113.77-1.52 117.72-4.18L117.72-4.18L117.72-4.18Q121.68-6.84 125.40-11.40L125.40-11.40L125.40-11.40Q126.31-12.62 126.84-12.62L126.84-12.62L126.84-12.62Q127.38-12.62 127.38-12.16L127.38-12.16L127.38-12.16Q127.38-11.70 124.26-8.21L124.26-8.21L124.26-8.21Q116.66 0.15 111.57 0.15L111.57 0.15L111.57 0.15Q109.06 0.15 107.31-1.03L107.31-1.03L107.31-1.03Q105.56-2.20 105.56-4.67L105.56-4.67L105.56-4.67Q105.56-7.14 106.86-10.41L106.86-10.41L106.86-10.41Q109.06-15.58 113.92-23.41L113.92-23.41L113.92-23.41Q122.82-37.85 126.54-37.85L126.54-37.85L126.54-37.85Q127.30-37.85 128.10-37.28L128.10-37.28L128.10-37.28Q128.90-36.71 128.97-36.02L128.97-36.02L128.97-36.02Q127.22-33.67 122.25-26.98L122.25-26.98L122.25-26.98Q117.27-20.29 115.37-17.37L115.37-17.37L115.37-17.37Q113.47-14.44 112.52-13.00L112.52-13.00L112.52-13.00Q111.57-11.55 111.11-10.75L111.11-10.75L111.11-10.75Q110.66-9.96 110.05-8.66L110.05-8.66L110.05-8.66Q108.76-6.08 108.76-3.80ZM130.04 0.99L130.04 0.99L130.04 0.99Q129.20 0.99 128.52 0.76L128.52 0.76L128.52 0.76Q123.65-0.61 123.65-4.71L123.65-4.71L123.65-4.71Q123.65-10.03 130.34-17.02L130.34-17.02L130.34-17.02Q137.03-24.02 142.35-24.02L142.35-24.02L142.35-24.02Q144.10-24.02 145.20-23.07L145.20-23.07L145.20-23.07Q146.30-22.12 146.30-20.48L146.30-20.48L146.30-20.48Q146.30-18.85 145.31-17.06L145.31-17.06L145.31-17.06Q144.32-15.28 142.35-15.28L142.35-15.28L142.35-15.28Q140.37-15.28 140.37-16.49L140.37-16.49L140.37-16.49Q140.37-17.33 141.40-19.04L141.40-19.04L141.40-19.04Q142.42-20.75 142.42-20.86L142.42-20.86L142.42-20.86Q142.42-20.98 142.20-20.98L142.20-20.98L142.20-20.98Q140.07-20.75 136.38-17.94L136.38-17.94L136.38-17.94Q132.70-15.12 131.33-13.22L131.33-13.22L128.36-8.89L128.36-8.89Q127.60-7.68 127.26-6.00L127.26-6.00L127.26-6.00Q126.92-4.33 126.92-3.50L126.92-3.50L126.92-3.50Q126.92-2.66 127.87-1.60L127.87-1.60L127.87-1.60Q128.82-0.53 130.57-0.53L130.57-0.53L130.57-0.53Q134.37-0.53 139.99-4.98L139.99-4.98L139.99-4.98Q145.62-9.42 148.66-13.45L148.66-13.45L148.66-13.45Q149.04-13.91 149.57-13.91L149.57-13.91L149.57-13.91Q150.10-13.91 150.10-13.60L150.10-13.60L150.10-13.60Q150.10-13.30 149.72-12.84L149.72-12.84L149.72-12.84Q145.54-7.30 139.73-3.15L139.73-3.15L139.73-3.15Q133.91 0.99 130.04 0.99ZM165.60-16.11L165.60-16.11L165.60-16.11Q165.60-13.45 160.51-7.22L160.51-7.22L160.51-7.22Q154.51 0.15 150.25 0.15L150.25 0.15L149.04 0.15L149.04 0.15Q147.06 0.15 145.92-1.90L145.92-1.90L145.92-1.90Q145.01-3.34 145.01-5.09L145.01-5.09L145.01-5.09Q145.01-9.65 151.66-17.90L151.66-17.90L151.66-17.90Q158.31-26.14 162.41-26.14L162.41-26.14L162.41-26.14Q166.29-26.14 166.29-22.04L166.29-22.04L166.29-22.04Q166.29-20.98 165.91-19.30L165.91-19.30L165.91-19.30Q165.98-19.08 167.35-19.08L167.35-19.08L167.35-19.08Q168.72-19.08 171.53-20.52L171.53-20.52L171.53-20.52Q171.46-19.23 165.53-16.80L165.53-16.80L165.53-16.80Q165.60-16.49 165.60-16.11ZM160.66-20.06L160.66-20.06L160.66-20.06Q158.08-20.06 153.33-13.98L153.33-13.98L153.33-13.98Q148.58-7.90 148.58-5.02L148.58-5.02L148.58-5.02Q148.58-2.13 150.40-2.13L150.40-2.13L150.40-2.13Q153.67-2.13 158.69-8.06L158.69-8.06L158.69-8.06Q163.70-13.98 163.70-16.57L163.70-16.57L163.70-16.57Q162.49-17.25 160.66-20.06ZM203.45-0.91L203.45-0.91L203.45-0.91Q198.28-0.91 198.28-5.70L198.28-5.70L198.28-5.70Q198.28-8.44 200.72-13.19L200.72-13.19L200.72-13.19Q203.15-17.94 205.81-21.20L205.81-21.20L205.81-21.20Q201.10-18.92 194.94-12.96L194.94-12.96L194.94-12.96Q188.78-6.99 186.35-0.46L186.35-0.46L186.35-0.46Q185.97 0.15 185.06 0.15L185.06 0.15L185.06 0.15Q183.24 0.15 183.24-1.90L183.24-1.90L183.24-1.90Q184.00-6.08 186.66-11.48L186.66-11.48L186.66-11.48Q187.49-13.22 191.60-21.66L191.60-21.66L191.60-21.66Q185.67-17.78 181.53-13.34L181.53-13.34L181.53-13.34Q177.38-8.89 173.85-4.41L173.85-4.41L173.85-4.41Q170.32 0.08 169.86 0.08L169.86 0.08L169.86 0.08Q168.87 0.08 168.15-0.84L168.15-0.84L168.15-0.84Q167.43-1.75 167.43-2.66L167.43-2.66L167.43-2.66Q167.43-4.03 171.38-12.69L171.38-12.69L166.82-7.90L166.82-7.90Q165.15-6.23 164.73-6.23L164.73-6.23L164.73-6.23Q164.31-6.23 164.31-6.73L164.31-6.73L164.31-6.73Q164.31-7.22 164.92-7.83L164.92-7.83L164.92-7.83Q167.73-10.64 169.94-13.45L169.94-13.45L169.94-13.45Q172.14-16.26 177.23-23.48L177.23-23.48L177.23-23.48Q178.07-24.62 179.59-24.62L179.59-24.62L179.59-24.62Q181.11-24.62 181.11-23.18L181.11-23.18L181.11-23.18Q181.11-22.65 177.08-15.77L177.08-15.77L177.08-15.77Q173.05-8.89 172.60-7.14L172.60-7.14L172.60-7.14Q175.71-10.56 181.94-16.34L181.94-16.34L181.94-16.34Q191.29-25.00 194.26-25.00L194.26-25.00L194.26-25.00Q195.17-25.00 195.93-24.47L195.93-24.47L195.93-24.47Q196.69-23.94 196.69-23.29L196.69-23.29L196.69-23.29Q196.69-22.65 193.72-17.56L193.72-17.56L193.72-17.56Q190.84-12.31 190.53-11.32L190.53-11.32L190.53-11.32Q198.97-18.39 198.97-18.47L198.97-18.47L198.97-18.47Q206.11-24.02 209.23-24.02L209.23-24.02L209.23-24.02Q210.14-24.02 210.94-23.45L210.94-23.45L210.94-23.45Q211.74-22.88 211.74-22.12L211.74-22.12L211.74-22.12Q211.74-21.96 206.80-15.69L206.80-15.69L206.80-15.69Q201.86-9.42 201.25-5.40L201.25-5.40L201.25-5.40Q201.10-4.03 201.78-3.34L201.78-3.34L201.78-3.34Q202.46-2.66 204.25-2.66L204.25-2.66L204.25-2.66Q206.04-2.66 209.49-5.13L209.49-5.13L209.49-5.13Q212.95-7.60 216.52-11.78L216.52-11.78L216.52-11.78Q217.89-13.30 218.39-13.30L218.39-13.30L218.39-13.30Q218.88-13.30 218.88-12.92L218.88-12.92L218.88-12.92Q218.88-12.39 218.20-11.70L218.20-11.70L218.20-11.70Q214.47-7.22 210.18-4.07L210.18-4.07L210.18-4.07Q205.88-0.91 203.45-0.91ZM218.96 0.99L218.96 0.99L218.96 0.99Q218.12 0.99 217.44 0.76L217.44 0.76L217.44 0.76Q212.57-0.61 212.57-4.71L212.57-4.71L212.57-4.71Q212.57-10.03 219.26-17.02L219.26-17.02L219.26-17.02Q225.95-24.02 231.27-24.02L231.27-24.02L231.27-24.02Q233.02-24.02 234.12-23.07L234.12-23.07L234.12-23.07Q235.22-22.12 235.22-20.75L235.22-20.75L235.22-20.75Q235.22-16.49 228.80-12.62L228.80-12.62L228.80-12.62Q222.38-8.74 218.35-8.74L218.35-8.74L218.35-8.74Q217.74-8.74 217.28-8.89L217.28-8.89L217.28-8.89Q216.14-6.84 216.14-4.56L216.14-4.56L216.14-4.56Q216.14-0.61 219.91-0.61L219.91-0.61L219.91-0.61Q223.67-0.61 229.67-5.70L229.67-5.70L229.67-5.70Q234.31-9.42 237.58-13.60L237.58-13.60L237.58-13.60Q238.26-14.52 238.75-14.52L238.75-14.52L238.75-14.52Q239.25-14.52 239.25-14.06L239.25-14.06L239.25-14.06Q239.25-13.60 238.64-12.77L238.64-12.77L238.64-12.77Q234.54-7.37 228.76-3.19L228.76-3.19L228.76-3.19Q222.98 0.99 218.96 0.99ZM233.32-20.90L233.32-20.90L233.32-20.90Q233.32-21.81 231.38-21.81L231.38-21.81L231.38-21.81Q229.44-21.81 225.87-18.85L225.87-18.85L225.87-18.85Q221.08-14.90 218.42-10.56L218.42-10.56L218.42-10.56Q218.88-10.41 219.41-10.41L219.41-10.41L219.41-10.41Q222.30-10.41 227.13-13.49L227.13-13.49L227.13-13.49Q231.95-16.57 233.17-20.22L233.17-20.22L233.17-20.22Q233.32-20.60 233.32-20.90ZM245.18-8.89L245.18-8.89L245.18-8.89Q244.64-8.89 244.87-10.34L244.87-10.34L244.87-10.34Q245.78-15.58 251.94-24.81L251.94-24.81L251.94-24.81Q258.10-34.05 260.30-34.05L260.30-34.05L260.30-34.05Q261.21-34.05 262.31-33.71L262.31-33.71L262.31-33.71Q263.42-33.36 263.42-32.76L263.42-32.76L263.42-32.76Q263.42-32.53 263.11-32.22L263.11-32.22L263.11-32.22Q259.92-28.88 253.73-20.71L253.73-20.71L253.73-20.71Q247.53-12.54 246.73-10.72L246.73-10.72L246.73-10.72Q245.94-8.89 245.18-8.89ZM243.43-5.02L243.43-5.02Q244.57-5.02 245.56-4.29L245.56-4.29L245.56-4.29Q246.54-3.57 246.54-2.58L246.54-2.58L246.54-2.58Q246.54-1.60 245.59-0.87L245.59-0.87L245.59-0.87Q244.64-0.15 243.50-0.15L243.50-0.15L243.50-0.15Q242.36-0.15 241.41-0.99L241.41-0.99L241.41-0.99Q240.46-1.82 240.46-2.89L240.46-2.89L240.46-2.89Q240.46-5.02 243.43-5.02L243.43-5.02Z" fill="#626262"></path></g></g><style>text {
  font-size: 64px;
  font-family: Arial Black;
  dominant-baseline: central;
  text-anchor: middle;
}</style></svg>